#!OML:ASF F:\VICON\USERDATA\INSTALL\rory3\rory3.ASF
:FULLY-SPECIFIED
:DEGREES
98
root -4.925494095282965 18.017128829404346 -4.118558121311475 -174.76969129470748 -9.247815000903216 -181.80296939785603
lfemur -28.765257132905898 -19.585293122758834 -11.41583665408295
ltibia 27.54928010857939
lfoot 27.31994097622976 -45.811494030461645
ltoes 50.44701392261332
rfemur 19.766863625874258 -11.085695924305726 24.41957179582285
rtibia 8.421302950590885
rfoot 36.87666837989438 -34.187040326439124
rtoes 23.147939053238545
lowerback -12.19838449124118 16.61303338303497 15.520524606481857
upperback -16.460474887346464 20.204405965333436 0.32491228612605405
thorax -6.99029423198333 8.263234712936551 -6.265197421237833
lowerneck -10.701687756168802 -20.30833071849228 -4.940216415639451
upperneck 12.816207912388924 -27.78379537832888 3.067659830000861
head 6.52801947853475 -13.490369455433965 -0.7330126413917721
lclavicle -5.285274557544331e-15 -1.041313661269912e-14
lhumerus 68.04134749752873 28.66621059897318 44.786596238430626
lradius 68.18017623328471
lwrist 19.690800655020045
lhand -23.318791210024685 14.120173592418325
lfingers 7.125020000000001
lthumb -176.8629470145433 -11.014947118143041
rclavicle -5.2852745575443225e-15 -1.0413136612699119e-14
rhumerus 113.7435388446811 25.900362557366226 -55.661971903819605
rradius 65.17953580403687
rwrist -0.7307784105901618
rhand -44.59388559575196 23.250349392743196
rfingers 7.125020000000001
rthumb -17.4029322352175 -5.928954461875055
99
root -4.902563823996863 18.026415568537008 -4.057560523971496 -174.37789536962242 -8.620214026504463 -181.3929903551064
lfemur -28.779314506417414 -19.24223575368594 -11.23148705037122
ltibia 27.285143372111655
lfoot 27.16508193044615 -45.6094681980197
ltoes 50.412313880567055
rfemur 19.258032757898256 -10.630688875514654 24.449149111572158
rtibia 9.121567968898614
rfoot 36.314880049114535 -33.84813260726773
rtoes 22.661538245599154
lowerback -11.958774284457023 16.150866377883716 15.459984013069917
upperback -15.97629623691714 19.958671768211502 0.5647998829336474
thorax -6.7966427484253895 8.316571777580705 -6.079071225188583
lowerneck -11.11957680349781 -19.887902977964185 -4.628657508303846
upperneck 12.852029587785978 -27.16569912851232 2.849442212738796
head 6.530061619371492 -13.178984399869735 -0.7994253183476216
lclavicle -5.223659081092278e-15 -1.036784925095267e-14
lhumerus 67.88673225340084 26.90712054845912 43.91217180022565
lradius 65.86289478180522
lwrist 20.831232041083126
lhand -22.341598791288995 13.919747816943694
lfingers 7.125020000000001
lthumb -175.92134827456962 -8.580843668006878
rclavicle -5.223659081092269e-15 -1.036784925095267e-14
rhumerus 112.4529761485023 25.85873444664402 -55.95523222070273
rradius 63.377686174380884
rwrist -2.461925316151074
rhand -43.89254648027893 22.853798283632646
rfingers 7.125020000000001
rthumb -16.726980618484735 -6.34799850642945
100
root -4.878461027089219 18.036496566149243 -3.9918153397383587 -174.05759501772312 -7.954543072767777 -181.05578425633723
lfemur -28.777837913502196 -18.925490418807236 -11.041451183298376
ltibia 27.009436527243885
lfoot 26.965710648894074 -45.440160816830776
ltoes 50.2421497781162
rfemur 18.748872037555017 -10.157997703462113 24.453904844395723
rtibia 9.86801274352858
rfoot 35.761958182633414 -33.49658087378243
rtoes 22.202495336375872
lowerback -11.719545980943586 15.694291278165649 15.37900750114871
upperback -15.47884362448221 19.697502260074213 0.800408074401446
thorax -6.5947594750136975 8.358779355570611 -5.883588618311188
lowerneck -11.549113991412453 -19.419504143935658 -4.302815124924785
upperneck 12.880427049638119 -26.49694500900835 2.6436603084376324
head 6.537192852093845 -12.841816307579489 -0.8634927248720655
lclavicle -5.135308918395952e-15 -1.0302604108316182e-14
lhumerus 67.79373275818742 24.96220168956512 43.358559081285755
lradius 63.65654986919605
lwrist 21.942356883130984
lhand -21.4422662511171 13.823196942179138
lfingers 7.125020000000001
lthumb -175.05459102717379 -6.886092126866799
rclavicle -5.13530891839595e-15 -1.0302604108316182e-14
rhumerus 111.08521159021973 25.901649203108718 -56.1730523319176
rradius 61.612746062843016
rwrist -4.067385634743951
rhand -43.26158600586578 22.478308902138956
rfingers 7.125020000000001
rthumb -16.118399773885383 -6.740139357123829
101
root -4.854160273236624 18.04723565300679 -3.9262528761725233 -173.8607788008551 -7.284009215680911 -180.84587575932636
lfemur -28.778389215655903 -18.649294191496367 -10.861510185218615
ltibia 26.714174839525597
lfoot 26.703676617737102 -45.335672183535856
ltoes 49.923377539689795
rfemur 18.23364128996664 -9.687469362161977 24.416882220500078
rtibia 10.614681849372769
rfoot 35.21570661873365 -33.16402772138128
rtoes 21.714522752141146
lowerback -11.484685475629652 15.24960610353815 15.267024329596406
upperback -14.986544466463702 19.41978745479659 1.0217881600231902
thorax -6.399242022594889 8.384093539850872 -5.690473471421977
lowerneck -11.97913966938151 -18.92868590048164 -3.974901599142755
upperneck 12.88793167895994 -25.814693246745648 2.453331908471853
head 6.544987159457876 -12.496944764393566 -0.9229082431573757
lclavicle -5.092443882452234e-15 -1.0276907379175181e-14
lhumerus 67.65838451187874 22.864457317496758 43.124361821788916
lradius 61.58250900799961
lwrist 22.97530121286765
lhand -20.630227791266314 13.799326982074362
lfingers 7.125020000000001
lthumb -174.27179404743424 -6.452004817220541
rclavicle -5.092443882452235e-15 -1.027690737917518e-14
rhumerus 109.59760350544084 25.999446433421213 -56.386834366951696
rradius 59.89463574240247
rwrist -5.5143090397190875
rhand -42.708717577304924 22.081181635748273
rfingers 7.125020000000001
rthumb -15.584847073322795 -7.151774236086347
